<svg width="87" height="98" viewBox="0 0 87 98" fill="none" xmlns="http://www.w3.org/2000/svg">
<path d="M40.8364 1.06775C40.6091 1.43329 40.4893 1.85548 40.4909 2.28593V10.9359C29.5252 11.6206 19.2328 16.4595 11.7099 24.4671C4.18706 32.4747 -0.00053591 43.0489 5.1441e-08 54.0359C5.1441e-08 77.8405 19.2864 97.2177 43.1818 97.2177C67.0773 97.2177 86.3636 77.8405 86.3636 54.0359C86.3689 48.7025 85.3841 43.4144 83.4591 38.4405C82.5864 36.1768 79.9682 35.0314 77.6136 35.8678C75.2636 36.7132 74.0682 39.2268 74.9409 41.4859C76.4773 45.4496 77.2727 49.6814 77.2727 54.0314C77.2727 73.0996 61.9636 88.4768 43.1818 88.4768C24.4 88.4768 9.09091 73.0996 9.09091 54.0405C9.09091 35.895 22.9545 21.0859 40.4864 19.6996V28.2223C40.487 28.6313 40.5972 29.0327 40.8054 29.3847C41.0137 29.7368 41.3123 30.0267 41.6704 30.2243C42.0286 30.4219 42.4331 30.52 42.8419 30.5085C43.2508 30.4969 43.6491 30.3761 43.9955 30.1587L64.6682 17.195C64.9969 16.9889 65.2679 16.7027 65.4557 16.3632C65.6435 16.0237 65.7421 15.6421 65.7421 15.2541C65.7421 14.8661 65.6435 14.4845 65.4557 14.145C65.2679 13.8055 64.9969 13.5193 64.6682 13.3132L43.9955 0.349571C43.7403 0.18972 43.4562 0.0817263 43.1593 0.0317646C42.8624 -0.0181971 42.5586 -0.00914861 42.2652 0.058396C41.9718 0.125941 41.6946 0.250653 41.4494 0.425406C41.2042 0.600158 40.9959 0.821525 40.8364 1.07684V1.06775ZM53.1818 39.1132C43.9818 39.1132 39.2636 45.3405 39.2636 56.145C39.2636 66.9496 43.9818 73.1768 53.1818 73.1768C62.3864 73.1768 67.0591 66.9496 67.0591 56.145C67.0591 45.3359 62.3864 39.1087 53.1818 39.1087V39.1132ZM29.1 39.8405C27.9545 45.0178 24.8409 46.4814 20.5818 46.7587L19.85 46.8041V52.0678H27.45V72.445H35.1864V39.845H29.0955L29.1 39.8405ZM53.1818 45.5223C56.8909 45.5223 59 48.4041 59 56.145C59 63.8814 56.9364 66.7677 53.1818 66.7677C49.4273 66.7677 47.3227 63.8814 47.3227 56.145C47.3227 48.4041 49.4273 45.5223 53.1864 45.5223H53.1818Z" fill="#333333"/>
</svg>
