<?xml version="1.0" standalone="no"?><!DOCTYPE svg PUBLIC "-//W3C//DTD SVG 1.1//EN" "http://www.w3.org/Graphics/SVG/1.1/DTD/svg11.dtd"><svg t="1767506629077" class="icon" viewBox="0 0 1024 1024" version="1.1" xmlns="http://www.w3.org/2000/svg" p-id="17568" xmlns:xlink="http://www.w3.org/1999/xlink" width="200" height="200"><path d="M863.86638 897.993054h-571.441951a35.964878 35.964878 0 0 1-35.964878-35.964878v-571.441952a35.964878 35.964878 0 0 1 35.964878-35.964878h571.441951a35.964878 35.964878 0 0 1 35.964879 35.964878v571.441952a35.964878 35.964878 0 0 1-35.964879 35.964878z m-543.469268-63.937561h515.496586v-515.496586h-515.496586z" p-id="17569"></path><path d="M288.428332 770.187863H163.720117a35.964878 35.964878 0 0 1-35.964878-35.964878v-571.441951a35.964878 35.964878 0 0 1 35.964878-35.964878h587.426342a35.964878 35.964878 0 0 1 35.964878 35.964878v123.809093h-63.937561v-95.83641h-531.480976v515.496585h96.735532z" p-id="17570"></path></svg>