<?xml version="1.0" standalone="no"?><!DOCTYPE svg PUBLIC "-//W3C//DTD SVG 1.1//EN" "http://www.w3.org/Graphics/SVG/1.1/DTD/svg11.dtd"><svg t="1767507767137" class="icon" viewBox="0 0 1024 1024" version="1.1" xmlns="http://www.w3.org/2000/svg" p-id="47414" xmlns:xlink="http://www.w3.org/1999/xlink" width="200" height="200"><path d="M511.627636 261.492364a11.729455 11.729455 0 0 0-1.768727 6.237091v44.288A221.090909 221.090909 0 0 0 302.545455 532.689455c0 121.879273 98.746182 221.090909 221.090909 221.090909s221.090909-99.211636 221.090909-221.090909a220.625455 220.625455 0 0 0-14.871273-79.848728c-4.468364-11.589818-17.873455-17.454545-29.928727-13.172363-12.032 4.328727-18.152727 17.198545-13.684364 28.765091 7.866182 20.293818 11.938909 41.960727 11.938909 64.232727 0 97.629091-78.382545 176.360727-174.545454 176.360727S349.090909 630.295273 349.090909 532.712727c0-92.904727 70.981818-168.727273 160.744727-175.825454v43.636363a11.729455 11.729455 0 0 0 17.966546 9.914182l105.844363-66.373818a11.729455 11.729455 0 0 0 0-19.874909l-105.844363-66.373818a11.729455 11.729455 0 0 0-16.174546 3.723636z m63.208728 194.792727c-47.104 0-71.261091 31.883636-71.261091 87.202909S527.732364 630.690909 574.836364 630.690909c47.127273 0 71.051636-31.883636 71.051636-87.202909 0-55.342545-23.924364-87.226182-71.051636-87.226182z m-123.298909 3.723636c-5.864727 26.507636-21.806545 34.001455-43.613091 35.421091l-3.746909 0.232727v26.949819h38.912v104.331636h39.610181v-166.912h-31.185454z m123.298909 29.090909c18.990545 0 29.789091 14.754909 29.789091 54.388364 0 39.610182-10.565818 54.388364-29.789091 54.388364-19.223273 0-29.998545-14.778182-29.998546-54.388364 0-39.633455 10.775273-54.388364 30.021818-54.388364z" fill="#333333" p-id="47415"></path></svg>