<?xml version="1.0" standalone="no"?><!DOCTYPE svg PUBLIC "-//W3C//DTD SVG 1.1//EN" "http://www.w3.org/Graphics/SVG/1.1/DTD/svg11.dtd"><svg t="1767506878986" class="icon" viewBox="0 0 1024 1024" version="1.1" xmlns="http://www.w3.org/2000/svg" p-id="35217" xmlns:xlink="http://www.w3.org/1999/xlink" width="200" height="200"><path d="M272.271781 959.193425c-1.122192 0-2.244384 0-3.366576-0.140274-18.656438-0.280548-40.118356-14.728767-40.118356-33.385206v-89.073972H89.354521c-47.693151 0-86.549041-31.982466-86.549042-71.399452V303.552877c0-39.416986 38.85589-71.399452 86.549042-71.399452h702.912876c47.693151 0 86.549041 31.982466 86.549041 71.399452v461.50137c0 39.416986-38.85589 71.399452-86.549041 71.399452H442.564384L302.991781 948.111781c-7.013699 5.470685-19.77863 11.081644-30.72 11.081644zM75.467397 744.995068c0 15.991233 17.534247 28.896438 38.996165 28.896439H265.117808c20.059178 0 36.330959 14.027397 36.330959 31.281096v58.63452l101.418082-81.078356c0.420822-0.280548 0.841644-0.561096 1.262466-0.981918 4.488767-3.647123 7.294247-5.751233 9.819178-6.873424l2.10411-0.981918h350.965479c21.461918 0 38.996164-12.905205 38.996165-28.896439V323.612055c0-15.991233-17.534247-28.896438-38.996165-28.896439H114.463562c-20.900822 0-38.435068 12.905205-38.996165 28.335343v421.944109z m822.426302-77.01041v-62.562192h11.221917c21.321644-0.140274 38.715616-13.045479 38.715617-28.896439V155.143014c0-15.991233-17.534247-28.896438-38.996165-28.896439H256.140274c-21.18137 0-38.996164 13.185753-38.996164 28.896439v47.272328h-40.258631c-6.172055 0-12.34411 0.841644-18.37589 2.244384l-13.887123 3.506849V135.083836c0-39.416986 38.85589-71.399452 86.549041-71.399452h702.772603c22.58411 0 44.046027 7.153973 60.317808 20.059178 16.973151 13.606575 26.231233 31.842192 26.231233 51.340274v461.501369c0 39.416986-38.85589 71.399452-86.549041 71.399453h-36.050411zM618.608219 587.607671c-9.819178 0-19.357808-2.524932-27.774246-7.43452-17.113425-9.959452-27.774247-28.335342-27.774247-48.254247 0-19.77863 10.660822-38.294795 27.774247-48.254246 8.416438-4.909589 18.095342-7.434521 27.774246-7.434521s19.357808 2.524932 27.774247 7.434521c17.113425 9.959452 27.774247 28.335342 27.774246 48.254246 0 19.77863-10.660822 38.294795-27.774246 48.254247-8.416438 4.909589-17.955068 7.434521-27.774247 7.43452z m-177.867397 0c-9.819178 0-19.357808-2.524932-27.774247-7.43452-17.113425-9.959452-27.774247-28.335342-27.774246-48.254247 0-19.77863 10.660822-38.294795 27.774246-48.254246 8.416438-4.909589 18.095342-7.434521 27.914521-7.434521 9.819178 0 19.357808 2.524932 27.774246 7.434521 17.113425 9.959452 27.774247 28.335342 27.774247 48.254246 0 19.77863-10.660822 38.294795-27.914521 48.254247-8.416438 4.909589-17.955068 7.434521-27.774246 7.43452z m-177.867397 0c-30.72 0-55.688767-24.968767-55.688767-55.688767 0-30.72 24.968767-55.688767 55.688767-55.688767 30.72 0 55.688767 24.968767 55.688767 55.688767 0 30.72-24.968767 55.688767-55.688767 55.688767z" fill="#333333" p-id="35218"></path></svg>