<svg width="87" height="92" viewBox="0 0 87 92" fill="none" xmlns="http://www.w3.org/2000/svg">
<path d="M53.1818 33.5189C43.9818 33.5189 39.2636 39.7462 39.2636 50.5507C39.2636 61.3553 43.9818 67.5825 53.1818 67.5825C62.3864 67.5825 67.0591 61.3553 67.0591 50.5507C67.0591 39.7416 62.3864 33.5144 53.1818 33.5144V33.5189ZM29.1 34.2462C27.9545 39.4234 24.8409 40.8871 20.5818 41.1644L19.85 41.2098V46.4734H27.45V66.8507H35.1864V34.2507H29.0955L29.1 34.2462ZM53.1818 39.928C56.8909 39.928 59 42.8098 59 50.5507C59 58.2871 56.9364 61.1734 53.1818 61.1734C49.4273 61.1734 47.3227 58.2871 47.3227 50.5507C47.3227 42.8098 49.4273 39.928 53.1864 39.928H53.1818Z" fill="#333333"/>
<path d="M53.1834 33.5182C43.9834 33.5182 39.2652 39.7455 39.2652 50.55C39.2652 61.3546 43.9834 67.5819 53.1834 67.5819C62.3879 67.5819 67.0607 61.3546 67.0607 50.55C67.0607 39.7409 62.3879 33.5137 53.1834 33.5137V33.5182ZM29.1016 34.2455C27.9561 39.4228 24.8425 40.8864 20.5834 41.1637L19.8516 41.2091V46.4728H27.4516V66.85H35.1879V34.25H29.097L29.1016 34.2455ZM53.1834 39.9273C56.8925 39.9273 59.0016 42.8091 59.0016 50.55C59.0016 58.2864 56.9379 61.1728 53.1834 61.1728C49.4288 61.1728 47.3243 58.2864 47.3243 50.55C47.3243 42.8091 49.4288 39.9273 53.1879 39.9273H53.1834Z" fill="#333333"/>
<path d="M45.227 1.01045C45.4428 1.35637 45.5565 1.7559 45.555 2.16325V10.349C55.9666 10.9969 65.7389 15.5761 72.8817 23.1539C80.0245 30.7318 84.0005 40.7384 84 51.1358C84 73.6627 65.6881 92 43 92C20.3119 92 2.00002 73.6627 2.00002 51.1358C1.99499 46.0886 2.93009 41.0843 4.75781 36.3774C5.58644 34.2352 8.07234 33.1512 10.3079 33.9427C12.5392 34.7428 13.6742 37.1215 12.8456 39.2594C11.3869 43.0103 10.6316 47.015 10.6316 51.1315C10.6316 69.1763 25.1672 83.7282 43 83.7282C60.8328 83.7282 75.3684 69.1763 75.3684 51.1401C75.3684 33.9685 62.2053 19.9542 45.5593 18.6423V26.7076C45.5586 27.0947 45.454 27.4745 45.2563 27.8076C45.0586 28.1408 44.775 28.4151 44.435 28.6021C44.095 28.7891 43.7109 28.882 43.3228 28.8711C42.9346 28.8601 42.5564 28.7458 42.2275 28.54L22.5993 16.2722C22.2872 16.0771 22.0299 15.8062 21.8516 15.485C21.6732 15.1637 21.5797 14.8026 21.5797 14.4354C21.5797 14.0683 21.6732 13.7071 21.8516 13.3858C22.0299 13.0646 22.2872 12.7937 22.5993 12.5987L42.2275 0.330809C42.4697 0.179538 42.7395 0.07734 43.0214 0.0300598C43.3033 -0.0172204 43.5918 -0.0086576 43.8704 0.0552618C44.1489 0.119181 44.4121 0.2372 44.6449 0.402574C44.8777 0.567947 45.0755 0.777433 45.227 1.01905V1.01045Z" fill="#333333"/>
</svg>
